<?xml version="1.0" encoding="utf-8"?>
<!-- Generator: Adobe Illustrator 18.1.1, SVG Export Plug-In . SVG Version: 6.00 Build 0)  -->
<svg version="1.1" id="Layer_1" xmlns="http://www.w3.org/2000/svg" xmlns:xlink="http://www.w3.org/1999/xlink" x="0px" y="0px"
	 viewBox="0 0 1512 2" enable-background="new 0 0 1512 2" xml:space="preserve">
<g>
	<line fill="none" stroke="#F7931E" stroke-width="2" stroke-miterlimit="10" x1="2" y1="1" x2="28.9" y2="1"/>
	<line fill="none" stroke="#5D9BBB" stroke-width="2" stroke-miterlimit="10" x1="31.7" y1="1" x2="58.6" y2="1"/>
	<line fill="none" stroke="#B7C85E" stroke-width="2" stroke-miterlimit="10" x1="61.5" y1="1" x2="88.2" y2="1"/>
	<line fill="none" stroke="#CE3B27" stroke-width="2" stroke-miterlimit="10" x1="91.2" y1="1" x2="117.9" y2="1"/>
	<line fill="none" stroke="#D2D2CE" stroke-width="2" stroke-miterlimit="10" x1="120.9" y1="1" x2="147.6" y2="1"/>
	<line fill="none" stroke="#F7931E" stroke-width="2" stroke-miterlimit="10" x1="150.6" y1="1" x2="177.3" y2="1"/>
	<line fill="none" stroke="#5D9BBB" stroke-width="2" stroke-miterlimit="10" x1="180.3" y1="1" x2="207" y2="1"/>
	<line fill="none" stroke="#B7C85E" stroke-width="2" stroke-miterlimit="10" x1="210" y1="1" x2="236.7" y2="1"/>
	<line fill="none" stroke="#CE3B27" stroke-width="2" stroke-miterlimit="10" x1="239.6" y1="1" x2="266.3" y2="1"/>
	<line fill="none" stroke="#D2D2CE" stroke-width="2" stroke-miterlimit="10" x1="269.3" y1="1" x2="296.2" y2="1"/>
	<line fill="none" stroke="#F7931E" stroke-width="2" stroke-miterlimit="10" x1="299" y1="1" x2="325.9" y2="1"/>
	<line fill="none" stroke="#5D9BBB" stroke-width="2" stroke-miterlimit="10" x1="328.9" y1="1" x2="355.6" y2="1"/>
	<line fill="none" stroke="#B7C85E" stroke-width="2" stroke-miterlimit="10" x1="358.6" y1="1" x2="385.3" y2="1"/>
	<line fill="none" stroke="#CE3B27" stroke-width="2" stroke-miterlimit="10" x1="388.3" y1="1" x2="414.9" y2="1"/>
	<line fill="none" stroke="#D2D2CE" stroke-width="2" stroke-miterlimit="10" x1="417.9" y1="1" x2="444.6" y2="1"/>
	<line fill="none" stroke="#F7931E" stroke-width="2" stroke-miterlimit="10" x1="447.6" y1="1" x2="474.3" y2="1"/>
	<line fill="none" stroke="#5D9BBB" stroke-width="2" stroke-miterlimit="10" x1="477.3" y1="1" x2="504" y2="1"/>
	<line fill="none" stroke="#B7C85E" stroke-width="2" stroke-miterlimit="10" x1="507" y1="1" x2="533.7" y2="1"/>
	<line fill="none" stroke="#CE3B27" stroke-width="2" stroke-miterlimit="10" x1="536.7" y1="1" x2="563.6" y2="1"/>
	<line fill="none" stroke="#D2D2CE" stroke-width="2" stroke-miterlimit="10" x1="566.3" y1="1" x2="593.2" y2="1"/>
	<line fill="none" stroke="#F7931E" stroke-width="2" stroke-miterlimit="10" x1="596.2" y1="1" x2="622.9" y2="1"/>
	<line fill="none" stroke="#5D9BBB" stroke-width="2" stroke-miterlimit="10" x1="625.9" y1="1" x2="652.6" y2="1"/>
	<line fill="none" stroke="#B7C85E" stroke-width="2" stroke-miterlimit="10" x1="655.6" y1="1" x2="682.3" y2="1"/>
	<line fill="none" stroke="#CE3B27" stroke-width="2" stroke-miterlimit="10" x1="685.3" y1="1" x2="712" y2="1"/>
	<line fill="none" stroke="#D2D2CE" stroke-width="2" stroke-miterlimit="10" x1="715" y1="1" x2="741.6" y2="1"/>
	<line fill="none" stroke="#F7931E" stroke-width="2" stroke-miterlimit="10" x1="744.6" y1="1" x2="771.3" y2="1"/>
	<line fill="none" stroke="#5D9BBB" stroke-width="2" stroke-miterlimit="10" x1="774.3" y1="1" x2="801" y2="1"/>
	<line fill="none" stroke="#B7C85E" stroke-width="2" stroke-miterlimit="10" x1="804" y1="1" x2="830.9" y2="1"/>
	<line fill="none" stroke="#CE3B27" stroke-width="2" stroke-miterlimit="10" x1="833.9" y1="1" x2="860.6" y2="1"/>
	<line fill="none" stroke="#D2D2CE" stroke-width="2" stroke-miterlimit="10" x1="863.6" y1="1" x2="890.3" y2="1"/>
	<line fill="none" stroke="#F7931E" stroke-width="2" stroke-miterlimit="10" x1="893.2" y1="1" x2="919.9" y2="1"/>
	<line fill="none" stroke="#5D9BBB" stroke-width="2" stroke-miterlimit="10" x1="922.9" y1="1" x2="949.6" y2="1"/>
	<line fill="none" stroke="#B7C85E" stroke-width="2" stroke-miterlimit="10" x1="952.6" y1="1" x2="979.3" y2="1"/>
	<line fill="none" stroke="#CE3B27" stroke-width="2" stroke-miterlimit="10" x1="982.3" y1="1" x2="1009" y2="1"/>
	<line fill="none" stroke="#D2D2CE" stroke-width="2" stroke-miterlimit="10" x1="1012" y1="1" x2="1038.7" y2="1"/>
	<line fill="none" stroke="#F7931E" stroke-width="2" stroke-miterlimit="10" x1="1041.7" y1="1" x2="1068.4" y2="1"/>
	<line fill="none" stroke="#5D9BBB" stroke-width="2" stroke-miterlimit="10" x1="1071.3" y1="1" x2="1098.2" y2="1"/>
	<line fill="none" stroke="#B7C85E" stroke-width="2" stroke-miterlimit="10" x1="1101.2" y1="1" x2="1127.9" y2="1"/>
	<line fill="none" stroke="#CE3B27" stroke-width="2" stroke-miterlimit="10" x1="1130.9" y1="1" x2="1157.6" y2="1"/>
	<line fill="none" stroke="#D2D2CE" stroke-width="2" stroke-miterlimit="10" x1="1160.6" y1="1" x2="1187.3" y2="1"/>
	<line fill="none" stroke="#F7931E" stroke-width="2" stroke-miterlimit="10" x1="1190.3" y1="1" x2="1217" y2="1"/>
	<line fill="none" stroke="#5D9BBB" stroke-width="2" stroke-miterlimit="10" x1="1220" y1="1" x2="1246.6" y2="1"/>
	<line fill="none" stroke="#B7C85E" stroke-width="2" stroke-miterlimit="10" x1="1249.6" y1="1" x2="1276.3" y2="1"/>
	<line fill="none" stroke="#CE3B27" stroke-width="2" stroke-miterlimit="10" x1="1279.3" y1="1" x2="1306" y2="1"/>
	<line fill="none" stroke="#D2D2CE" stroke-width="2" stroke-miterlimit="10" x1="1309" y1="1" x2="1335.9" y2="1"/>
	<line fill="none" stroke="#F7931E" stroke-width="2" stroke-miterlimit="10" x1="1338.7" y1="1" x2="1365.6" y2="1"/>
	<line fill="none" stroke="#5D9BBB" stroke-width="2" stroke-miterlimit="10" x1="1368.6" y1="1" x2="1395.3" y2="1"/>
	<line fill="none" stroke="#B7C85E" stroke-width="2" stroke-miterlimit="10" x1="1398.2" y1="1" x2="1424.9" y2="1"/>
	<line fill="none" stroke="#CE3B27" stroke-width="2" stroke-miterlimit="10" x1="1427.9" y1="1" x2="1454.6" y2="1"/>
	<line fill="none" stroke="#D2D2CE" stroke-width="2" stroke-miterlimit="10" x1="1457.6" y1="1" x2="1484.3" y2="1"/>
	<line fill="none" stroke="#F7931E" stroke-width="2" stroke-miterlimit="10" x1="1487.3" y1="1" x2="1514" y2="1"/>
</g>
</svg>
