<?xml version="1.0" encoding="utf-8"?>
<!-- Generator: Adobe Illustrator 18.1.1, SVG Export Plug-In . SVG Version: 6.00 Build 0)  -->
<svg version="1.1" id="Layer_1" xmlns="http://www.w3.org/2000/svg" xmlns:xlink="http://www.w3.org/1999/xlink" x="0px" y="0px"
	 viewBox="557.3 -17 385 542" enable-background="new 557.3 -17 385 542" xml:space="preserve">
<g>
	<rect x="659.3" y="376.2" fill="none" stroke="#5D9ABA" stroke-width="1.8" stroke-miterlimit="10" width="65.9" height="82.9"/>
	<path fill="none" stroke="#5D9ABA" stroke-width="1.8" stroke-miterlimit="10" d="M668.4,369.8c0,0-4.2,0.2-6.8,1.9
		c-2.3,1.8-2.9,5-2.9,5"/>
	<path fill="none" stroke="#5D9ABA" stroke-width="1.8" stroke-miterlimit="10" d="M668.7,452.2c0,0-3.9,0-6,1.4
		c-2.6,1.9-3.7,5.3-3.7,5.3"/>
	<rect x="668.7" y="369.8" fill="none" stroke="#5D9ABA" stroke-width="1.8" stroke-miterlimit="10" width="65.9" height="82.9"/>
	<g>
		<g>
			<path fill="none" stroke="#5D9ABA" stroke-width="1.8" stroke-miterlimit="10" d="M713,408.1c-0.3,0-0.5,0-0.8,0
				c-1.4-3.7-4.7-6.3-8.7-6.3c-0.5,0-1,0-1.3,0.2c-1.1-4-4.7-7.1-9.2-7.1c-5.3,0-9.5,4.3-9.5,9.5c0,0.3,0,0.6,0,1
				c-0.6-0.2-1.3-0.3-1.9-0.3c-3.2,0-6,2.6-6,6c0,2.9,2.1,5.3,4.8,5.8c-0.2,0.5-0.2,1-0.2,1.4c0,4.2,3.7,7.6,8.1,7.6
				c4,0,7.4-2.9,7.9-6.6c1.6,2.3,4.2,3.7,7.1,3.7c2.7,0,5.3-1.4,6.9-3.5c0.8,0.3,1.4,0.5,2.4,0.5c3.2,0,6-2.6,6-6
				C718.8,410.7,716.2,408.1,713,408.1z"/>
		</g>
	</g>
</g>
<g>
	<path fill="#929088" d="M754.4,417.9h5.5v1.9h-1.6l1.8,8.1c0.2,0.6,0.2,1.3,0.2,1.3l0,0c0,0,0-0.6,0.2-1.3l2.6-10h2.1l2.6,10
		c0.2,0.6,0.2,1.3,0.2,1.3l0,0c0,0,0-0.6,0.2-1.3l1.8-8.1h-1.6v-1.9h5.5v1.9h-1.3l-3.1,12.1h-3.2l-2.4-8.9c-0.2-0.6-0.2-1.3-0.2-1.3
		l0,0c0,0,0,0.6-0.2,1.3l-2.4,8.9h-2.9l-3.1-12.1h-0.8v-1.9H754.4z"/>
	<path fill="#929088" d="M774.5,430h1.3l4.2-12.1h2.9l4.2,12.1h1.3v1.9h-5.3V430h1.4l-0.8-2.6h-4.5l-0.9,2.6h1.4v1.9h-5.3L774.5,430
		L774.5,430z M783,425.3l-1.3-4c-0.2-0.6-0.3-1.3-0.3-1.3l0,0c0,0,0,0.5-0.3,1.3l-1.3,4H783z"/>
	<path fill="#929088" d="M789.6,430h1.6v-10.1h-1.6V418h4.3l6,9c0.3,0.5,0.5,1.1,0.5,1.1l0,0c0,0-0.2-0.8,0-1.3v-6.9h-1.8V418h6v1.9
		H803V432h-2.6l-6-9c-0.3-0.5-0.5-1.1-0.5-1.1l0,0c0,0,0.2,0.8,0.2,1.3v6.9h1.8v1.9h-6v-2H789.6z"/>
	<path fill="#929088" d="M809.3,430h1.6v-10.1h-2.7v2.1h-2.3v-4.2h12.4v4.2H816v-2.1h-2.7V430h1.8v1.9h-6V430H809.3z"/>
	<path fill="#929088" d="M757.7,456.4h1.6v-10.1h-2.7v2.1h-2.3v-4.2h12.4v4.2h-2.3v-2.1h-2.7v10.1h1.8v1.9h-6v-1.9H757.7z"/>
	<path fill="#929088" d="M775.6,444c4.2,0,7.2,3.2,7.2,7.2c0,4.2-3.1,7.4-7.2,7.4s-7.2-3.2-7.2-7.4C768.2,447.1,771.4,444,775.6,444
		z M775.6,456.3c2.6,0,4.7-2.3,4.7-5.2c0-2.7-2.1-4.8-4.7-4.8c-2.6,0-4.7,2.1-4.7,4.8C770.9,454,773,456.3,775.6,456.3z"/>
	<path fill="#929088" d="M789.6,456.4h1.6v-10.1h-1.6v-1.9h6.3c1,0,1.9,0,2.7,0.3c1.6,0.5,2.6,1.8,2.6,3.7c0,1.9-1,3.4-2.7,3.9l0,0
		c0,0,0.5,0.2,0.6,0.8l1.6,2.9c0.2,0.3,0.5,0.5,1,0.5h0.5v1.9h-1.6c-1.1,0-1.4-0.2-1.9-1.1l-1.9-3.7c-0.3-0.5-0.5-0.6-1.4-0.6h-1.3
		v3.4h1.6v1.9h-6L789.6,456.4L789.6,456.4z M796.4,450.8c1.4,0,2.3-0.8,2.3-2.3c0-1-0.3-1.6-1.1-1.9c-0.3-0.2-1-0.3-1.6-0.3h-1.9
		v4.5L796.4,450.8L796.4,450.8z"/>
	<path fill="#929088" d="M804,456.4h1.6v-10.1H804v-1.9h10.5v3.7h-2.3v-1.6h-4v3.9h4.7v2.1h-4.7v4h4.2v-1.6h2.3v3.7h-10.8v-2.1h0.1
		V456.4z"/>
	<path fill="#929088" d="M815.9,456.4h1.3l4.2-12.1h2.9l4.2,12.1h1.3v1.9h-5.3v-1.9h1.4l-0.8-2.6h-4.5l-0.8,2.6h1.4v1.9h-5.3
		L815.9,456.4L815.9,456.4z M824.4,451.8l-1.3-4c-0.2-0.6-0.3-1.3-0.3-1.3l0,0c0,0,0,0.5-0.3,1.3l-1.3,4H824.4z"/>
	<path fill="#929088" d="M831,456.4h1.6v-10.1H831v-1.9h6.1c1.1,0,2.1,0,2.9,0.3c2.7,0.8,4.5,3.2,4.5,6.8c0,3.4-1.6,5.8-4.3,6.6
		c-1,0.3-1.9,0.5-3.1,0.5H831L831,456.4L831,456.4z M837.1,456.3c1,0,1.6,0,2.3-0.3c1.6-0.6,2.6-2.3,2.6-4.7s-1.1-4-2.7-4.7
		c-0.6-0.3-1.4-0.3-2.3-0.3h-1.8v10H837.1z"/>
</g>
<line fill="none" stroke="#929088" stroke-width="0.5" stroke-miterlimit="10" x1="628.1" y1="480.3" x2="882.5" y2="480.3"/>
<g>
	<rect x="668.7" y="43.4" fill="none" stroke="#F89521" stroke-width="1.8" stroke-miterlimit="10" width="66.2" height="82.6"/>
	<path fill="none" stroke="#F89521" stroke-width="1.8" stroke-miterlimit="10" d="M725.9,36.8c0,0,4.2,0.2,6.6,1.9
		c2.4,1.8,2.9,5,2.9,5"/>
	<path fill="none" stroke="#F89521" stroke-width="1.8" stroke-miterlimit="10" d="M725.5,119.1c0,0,3.9,0,6,1.4
		c2.6,1.9,3.7,5.3,3.7,5.3"/>
	<rect x="659.2" y="36.9" fill="none" stroke="#F89521" stroke-width="1.8" stroke-miterlimit="10" width="66.2" height="82.6"/>
	<polygon fill="none" stroke="#F89521" stroke-width="1.8" stroke-miterlimit="10" points="691.9,93.9 715.5,72.9 709.7,67.7 
		691.9,83.5 685.3,77.7 679.8,83.3 	"/>
</g>
<g>
	<path fill="#929088" d="M755,97.2h1.6V87H755v-1.9h10.1v3.7h-2.3v-1.4h-3.5v4h4.5v2.1h-4.5v3.9h1.9v1.9h-6.1v-2.1H755z"/>
	<path fill="#929088" d="M766.8,97.2h1.6V87h-1.6v-1.9h6V87H771v10.1h1.8V99h-6V97.2z"/>
	<path fill="#929088" d="M774.6,97.2h1.6V87h-1.6v-1.9h4.3l6,9c0.3,0.5,0.5,1.1,0.5,1.1l0,0c0,0-0.2-0.8,0-1.3V87h-1.8v-1.9h6V87
		H788v12.1h-2.6l-6-9c-0.3-0.5-0.5-1.1-0.5-1.1l0,0c0,0,0.2,0.8,0.2,1.3v6.9h1.8v1.9h-6v-1.9C774.9,97.2,774.6,97.2,774.6,97.2z"/>
	<path fill="#929088" d="M791.6,97.2h1.6V87h-1.6v-1.9h6V87h-1.8v10.1h1.8V99h-6V97.2z"/>
	<path fill="#929088" d="M801.9,94.6v1.1c0,1,1.1,1.4,2.4,1.4c1.4,0,2.4-0.6,2.4-1.8c0-1.4-1.6-1.9-3.2-2.6c-1.9-0.6-3.7-1.6-3.7-4
		c0-2.9,2.3-3.9,4.7-3.9c2.3,0,4.5,0.8,4.5,2.4V89h-2.4v-1c0-0.6-1.1-1.1-2.1-1.1c-1.1,0-2.1,0.5-2.1,1.6c0,1.3,1.3,1.8,2.7,2.3
		c2.1,0.8,4.2,1.6,4.2,4.2c0,2.9-2.4,4.2-5.2,4.2c-2.4,0-4.8-1.1-4.8-3.2v-1.6h2.6L801.9,94.6L801.9,94.6z"/>
	<path fill="#929088" d="M811.4,97.2h1.6V87h-1.6v-1.9h6V87h-1.8v4h6.4v-4h-1.6v-1.9h6V87h-1.6v10.1h1.6V99h-6v-1.9h1.8v-4h-6.4v4
		h1.8V99h-6v-1.9L811.4,97.2L811.4,97.2z"/>
	<path fill="#929088" d="M828.3,97.2h1.6V87h-1.6v-1.9h10.5v3.7h-2.3v-1.6h-4v3.9h4.7v2.1h-4.7v4h4.2v-1.6h2.3v3.7h-10.8L828.3,97.2
		L828.3,97.2z"/>
	<path fill="#929088" d="M841,97.2h1.6V87H841v-1.9h6.1c1.1,0,2.1,0,2.9,0.3c2.7,0.8,4.5,3.2,4.5,6.8c0,3.4-1.6,5.8-4.3,6.6
		c-1,0.3-1.9,0.5-3.1,0.5H841L841,97.2L841,97.2z M846.9,97.2c1,0,1.6,0,2.3-0.3c1.6-0.6,2.6-2.3,2.6-4.7c0-2.4-1.1-4-2.7-4.7
		c-0.6-0.3-1.4-0.3-2.3-0.3H845v10H846.9z"/>
	<path fill="#929088" d="M755,123.6h1.6v-10.1H755v-1.9h6.3c1,0,1.9,0,2.7,0.3c1.6,0.5,2.6,1.8,2.6,3.7s-1,3.4-2.7,3.9l0,0
		c0,0,0.5,0.2,0.6,0.8l1.6,2.9c0.2,0.3,0.5,0.5,1,0.5h0.5v1.9H766c-1.1,0-1.4-0.2-1.9-1.1l-1.9-3.7c-0.3-0.5-0.5-0.6-1.4-0.6h-1.5
		v3.4h1.6v1.9h-6v-1.9H755z M761.6,118.1c1.4,0,2.3-0.8,2.3-2.3c0-1-0.3-1.6-1.1-1.9c-0.3-0.2-1-0.3-1.6-0.3h-1.9v4.5H761.6
		L761.6,118.1z"/>
	<path fill="#929088" d="M769.2,123.6h1.6v-10.1h-1.6v-1.9h10.5v3.5h-2.3v-1.6h-4v3.9h4.7v2.1h-4.7v4h4.2v-1.6h2.3v3.7h-10.8
		L769.2,123.6L769.2,123.6L769.2,123.6z"/>
	<path fill="#929088" d="M781.2,123.6h1.3l4.2-12.1h2.9l4.2,12.1h1.3v1.9h-5.3v-1.9h1.4l-0.8-2.6h-4.5l-0.8,2.6h1.4v1.9h-5.3
		L781.2,123.6L781.2,123.6z M789.8,118.9l-1.3-4c-0.2-0.6-0.3-1.3-0.3-1.3l0,0c0,0,0,0.5-0.3,1.3l-1.3,4H789.8z"/>
	<path fill="#929088" d="M796.4,123.6h1.6v-10.1h-1.6v-1.9h6.1c1.1,0,2.1,0,2.9,0.3c2.7,0.8,4.5,3.2,4.5,6.8c0,3.4-1.6,5.8-4.3,6.6
		c-1,0.3-1.9,0.5-3.1,0.5h-6.1L796.4,123.6L796.4,123.6z M802.3,123.4c1,0,1.6,0,2.3-0.3c1.6-0.6,2.6-2.3,2.6-4.7s-1.1-4-2.7-4.7
		c-0.6-0.3-1.4-0.3-2.3-0.3h-1.8v10H802.3z"/>
	<path fill="#929088" d="M812,123.6h1.6v-10.1H812v-1.9h6v1.9h-1.8v10.1h1.8v1.9h-6V123.6z"/>
	<path fill="#929088" d="M819.9,123.6h1.6v-10.1h-1.6v-1.9h4.3l6,9c0.3,0.5,0.5,1.1,0.5,1.1l0,0c0,0-0.2-0.8,0-1.3v-6.9h-1.8v-1.9h6
		v1.9h-1.6v12.1h-2.6l-6-9c-0.3-0.5-0.5-1.1-0.5-1.1l0,0c0,0,0.2,0.8,0.2,1.3v6.9h1.8v1.9h-6v-1.9h-0.3V123.6z"/>
	<path fill="#929088" d="M844,111.2c2.6,0,5.5,1,5.5,2.7v1.9h-2.4v-1c0-1-1.6-1.4-3.1-1.4c-3.1,0-4.8,1.9-4.8,4.8
		c0,3.1,1.9,5.2,5,5.2c1.1,0,3.2-0.3,3.2-1.4v-1.4h-2.6v-1.9h5v4.2c0,2.1-3.7,2.9-5.8,2.9c-4.3,0-7.4-3.1-7.4-7.4
		C836.6,114.2,839.7,111.2,844,111.2z"/>
</g>
<line fill="none" stroke="#929088" stroke-width="0.5" stroke-miterlimit="10" x1="628.1" y1="147.6" x2="882.5" y2="147.6"/>
<g>
	<line fill="none" stroke="#A7BF4C" stroke-width="1.8" stroke-miterlimit="10" x1="696.9" y1="228.7" x2="696.5" y2="290.6"/>
	<g>
		<path fill="none" stroke="#A7BF4C" stroke-width="1.8" stroke-miterlimit="10" d="M696.9,228.7c0,0-24.3-16.9-51-14.7l-0.5,66.7
			c11.6-0.5,34.3-1.6,51,11.9c19-8.5,23.5-10.3,49.8-9.5l1.1-70.4C712.5,214.2,696.9,228.7,696.9,228.7z"/>
		<path fill="none" stroke="#A7BF4C" stroke-width="1.8" stroke-miterlimit="10" d="M697,229.7c0,0-13.5-22.2-41.1-23.8
			c0.3,33,0.3,54.7,0.2,63.3c8.2-0.5,29,3.2,38.5,20.8c0.5,0.8,1.6-0.3,1.9,0.2c0.2,0.3,1.1,0.2,1.3,0c9-10.1,21.9-17.2,38.8-17.7
			l0.3-67C710.7,206.3,697,229.7,697,229.7z"/>
		<polyline fill="none" stroke="#A7BF4C" stroke-width="1.8" stroke-miterlimit="10" points="748.4,219.2 755.5,220 756.3,294.1 
			636.2,293.1 637.1,220.7 645.2,220.2 		"/>
	</g>
</g>
<line fill="none" stroke="#918E87" stroke-width="0.5" stroke-miterlimit="10" x1="625.4" y1="314.7" x2="879.8" y2="314.7"/>
<g>
	<path fill="#918E87" d="M775,264.5h1.6v-10.1H775v-1.9h4.3l6,9c0.3,0.5,0.5,1.1,0.5,1.1l0,0c0,0-0.2-0.8,0-1.3v-6.9H784v-1.9h6v1.9
		h-1.7v12.1h-2.6l-6-9c-0.3-0.5-0.5-1.1-0.5-1.1l0,0c0,0,0.2,0.8,0.2,1.3v6.9h1.8v1.9h-6v-1.9H775V264.5z"/>
	<path fill="#918E87" d="M799,252.1c4.2,0,7.2,3.2,7.2,7.2c0,4.2-3.1,7.4-7.2,7.4c-4.2,0-7.2-3.2-7.2-7.4
		C791.6,255.1,794.8,252.1,799,252.1z M799,264.3c2.6,0,4.7-2.3,4.7-5.2c0-2.7-2.1-4.8-4.7-4.8c-2.6,0-4.7,2.1-4.7,4.8
		C794.3,262.1,796.4,264.3,799,264.3z"/>
	<path fill="#918E87" d="M807.3,252.2h5.5v1.9h-1.6l1.8,8.1c0.2,0.6,0.2,1.3,0.2,1.3l0,0c0,0,0-0.6,0.2-1.3l2.6-10h2.1l2.6,10
		c0.2,0.6,0.2,1.3,0.2,1.3l0,0c0,0,0-0.6,0.2-1.3l1.8-8.1h-1.6v-1.9h5.5v1.9h-1.3l-3.1,12.1h-2.9l-2.4-8.9c-0.2-0.6-0.2-1.3-0.2-1.3
		l0,0c0,0,0,0.6-0.2,1.3l-2.4,8.9h-2.9l-3.1-12.1H807v-1.9H807.3z"/>
	<path fill="#918E87" d="M775,290.7h1.6v-10.1H775v-1.9h6.3c1,0,1.9,0,2.7,0.3c1.6,0.5,2.6,1.8,2.6,3.7s-1,3.4-2.7,3.9l0,0
		c0,0,0.5,0.2,0.6,0.8l1.6,2.9c0.2,0.3,0.5,0.5,1,0.5h0.5v1.9H786c-1.1,0-1.4-0.2-1.9-1.1l-1.9-3.7c-0.3-0.5-0.5-0.6-1.4-0.6h-1.5
		v3.4h1.6v1.9h-6v-1.9H775z M781.6,285.3c1.4,0,2.3-0.8,2.3-2.3c0-1-0.3-1.6-1.1-1.9c-0.3-0.2-1-0.3-1.6-0.3h-1.9v4.5L781.6,285.3
		L781.6,285.3z"/>
	<path fill="#918E87" d="M789.1,290.7h1.6v-10.1h-1.6v-1.9h10.5v3.7h-2.3v-1.6h-4v3.9h4.7v2.1h-4.7v4h4.2v-1.6h2.3v3.7H789v-2.1h0.1
		V290.7z"/>
	<path fill="#918E87" d="M801.2,290.7h1.3l4.2-12.1h2.9l4.2,12.1h1.3v1.9h-5.3v-1.9h1.4l-0.8-2.6h-4.5l-0.8,2.6h1.4v1.9h-5.3
		L801.2,290.7L801.2,290.7z M809.7,286.1l-1.3-4c-0.2-0.6-0.3-1.3-0.3-1.3l0,0c0,0,0,0.5-0.3,1.3l-1.3,4H809.7z"/>
	<path fill="#918E87" d="M816.4,290.7h1.6v-10.1h-1.6v-1.9h6.1c1.1,0,2.1,0,2.9,0.3c2.7,0.8,4.5,3.2,4.5,6.8c0,3.4-1.6,5.8-4.3,6.6
		c-1,0.3-1.9,0.5-3.1,0.5h-6.1L816.4,290.7L816.4,290.7z M822.3,290.7c1,0,1.6,0,2.3-0.3c1.6-0.6,2.6-2.3,2.6-4.7s-1.1-4-2.7-4.7
		c-0.6-0.3-1.4-0.3-2.3-0.3h-1.8v10H822.3L822.3,290.7z"/>
	<path fill="#918E87" d="M831.8,290.7h1.6v-10.1h-1.6v-1.9h6v1.9H836v10.1h1.8v1.9h-6V290.7z"/>
	<path fill="#918E87" d="M839.9,290.7h1.6v-10.1h-1.6v-1.9h4.3l6,9c0.3,0.5,0.5,1.1,0.5,1.1l0,0c0,0-0.2-0.8,0-1.3v-6.9h-1.8v-1.9h6
		v1.9h-1.6v12.1h-2.6l-6-9c-0.3-0.5-0.5-1.1-0.5-1.1l0,0c0,0,0.2,0.8,0.2,1.3v6.9h1.8v1.9h-6v-1.9h-0.3V290.7z"/>
	<path fill="#918E87" d="M864,278.5c2.6,0,5.5,1,5.5,2.7v1.9h-2.4v-1c0-1-1.6-1.4-3.1-1.4c-3.1,0-4.8,1.9-4.8,4.8
		c0,3.1,1.9,5.2,5,5.2c1.1,0,3.2-0.3,3.2-1.4v-1.4h-2.6V286h5v4.2c0,2.1-3.7,2.9-5.8,2.9c-4.3,0-7.4-3.1-7.4-7.4
		C856.6,281.4,859.7,278.5,864,278.5z"/>
</g>
</svg>
