<?xml version="1.0" encoding="utf-8"?>
<!-- Generator: Adobe Illustrator 18.1.1, SVG Export Plug-In . SVG Version: 6.00 Build 0)  -->
<svg version="1.1" id="Layer_1" xmlns="http://www.w3.org/2000/svg" xmlns:xlink="http://www.w3.org/1999/xlink" x="0px" y="0px"
	 viewBox="0 0 1512 576" enable-background="new 0 0 1512 576" xml:space="preserve">
<g>
	<rect x="697.5" y="257.2" fill="none" stroke="#5D9ABA" stroke-width="1.8" stroke-miterlimit="10" width="40.9" height="51.5"/>
	<path fill="none" stroke="#5D9ABA" stroke-width="1.8" stroke-miterlimit="10" d="M703.2,253.2c0,0-2.6,0.1-4.2,1.2
		c-1.4,1.1-1.8,3.1-1.8,3.1"/>
	<path fill="none" stroke="#5D9ABA" stroke-width="1.8" stroke-miterlimit="10" d="M703.4,304.4c0,0-2.4,0-3.7,0.9
		c-1.6,1.2-2.3,3.3-2.3,3.3"/>
	<rect x="703.4" y="253.2" fill="none" stroke="#5D9ABA" stroke-width="1.8" stroke-miterlimit="10" width="40.9" height="51.5"/>
	<g>
		<g>
			<path fill="none" stroke="#5D9ABA" stroke-width="1.8" stroke-miterlimit="10" d="M730.9,277c-0.2,0-0.3,0-0.5,0
				c-0.9-2.3-2.9-3.9-5.4-3.9c-0.3,0-0.6,0-0.8,0.1c-0.7-2.5-2.9-4.4-5.7-4.4c-3.3,0-5.9,2.7-5.9,5.9c0,0.2,0,0.4,0,0.6
				c-0.4-0.1-0.8-0.2-1.2-0.2c-2,0-3.7,1.6-3.7,3.7c0,1.8,1.3,3.3,3,3.6c-0.1,0.3-0.1,0.6-0.1,0.9c0,2.6,2.3,4.7,5,4.7
				c2.5,0,4.6-1.8,4.9-4.1c1,1.4,2.6,2.3,4.4,2.3c1.7,0,3.3-0.9,4.3-2.2c0.5,0.2,0.9,0.3,1.5,0.3c2,0,3.7-1.6,3.7-3.7
				C734.5,278.6,732.9,277,730.9,277z"/>
		</g>
	</g>
</g>
<text transform="matrix(1 0 0 1 756.3684 291.8192)"><tspan x="0" y="0" fill="#929088" font-family="'MuseoSlab-700'" font-size="12.328">want </tspan><tspan x="0" y="16.4" fill="#929088" font-family="'MuseoSlab-700'" font-size="12.328">to read</tspan></text>
<line fill="none" stroke="#929088" stroke-width="0.5" stroke-miterlimit="10" x1="678.2" y1="321.8" x2="836.2" y2="321.8"/>
<g>
	<rect x="703.4" y="165.6" fill="none" stroke="#F89521" stroke-width="1.8" stroke-miterlimit="10" width="41.1" height="51.3"/>
	<path fill="none" stroke="#F89521" stroke-width="1.8" stroke-miterlimit="10" d="M738.9,161.5c0,0,2.6,0.1,4.1,1.2
		s1.8,3.1,1.8,3.1"/>
	<path fill="none" stroke="#F89521" stroke-width="1.8" stroke-miterlimit="10" d="M738.7,212.6c0,0,2.4,0,3.7,0.9
		c1.6,1.2,2.3,3.3,2.3,3.3"/>
	<rect x="697.5" y="161.6" fill="none" stroke="#F89521" stroke-width="1.8" stroke-miterlimit="10" width="41.1" height="51.3"/>
	<polygon fill="none" stroke="#F89521" stroke-width="1.8" stroke-miterlimit="10" points="717.8,197 732.5,183.9 728.9,180.7 
		717.8,190.5 713.7,186.9 710.3,190.4 	"/>
</g>
<text transform="matrix(1 0 0 1 756.3684 200.2511)"><tspan x="0" y="0" fill="#929088" font-family="'MuseoSlab-700'" font-size="12.328">Finished </tspan><tspan x="0" y="16.4" fill="#929088" font-family="'MuseoSlab-700'" font-size="12.328">reading</tspan></text>
<line fill="none" stroke="#929088" stroke-width="0.5" stroke-miterlimit="10" x1="678.2" y1="230.3" x2="836.2" y2="230.3"/>
<g>
	<line fill="none" stroke="#A7BF4C" stroke-width="1.8" stroke-miterlimit="10" x1="720.8" y1="361.7" x2="720.6" y2="400.1"/>
	<g>
		<path fill="none" stroke="#A7BF4C" stroke-width="1.8" stroke-miterlimit="10" d="M720.8,361.7c0,0-15.1-10.5-31.7-9.1l-0.3,41.4
			c7.2-0.3,21.3-1,31.7,7.4c11.8-5.3,14.6-6.4,30.9-5.9l0.7-43.7C730.6,352.7,720.8,361.7,720.8,361.7z"/>
		<path fill="none" stroke="#A7BF4C" stroke-width="1.8" stroke-miterlimit="10" d="M721,362.3c0,0-8.4-13.8-25.5-14.8
			c0.2,20.5,0.2,34,0.1,39.3c5.1-0.3,18,2,23.9,12.9c0.3,0.5,1-0.2,1.2,0.1c0.1,0.2,0.7,0.1,0.8,0c5.6-6.3,13.6-10.7,24.1-11
			l0.2-41.6C729.5,347.8,721,362.3,721,362.3z"/>
		<polyline fill="none" stroke="#A7BF4C" stroke-width="1.8" stroke-miterlimit="10" points="752.9,355.8 757.3,356.3 757.7,402.3 
			683.2,401.7 683.7,356.7 688.8,356.4 		"/>
	</g>
</g>
<line fill="none" stroke="#918E87" stroke-width="0.5" stroke-miterlimit="10" x1="676.5" y1="415.1" x2="834.5" y2="415.1"/>
<text transform="matrix(1 0 0 1 768.7581 385.0775)"><tspan x="0" y="0" fill="#918E87" font-family="'MuseoSlab-700'" font-size="12.328">now</tspan><tspan x="0" y="16.4" fill="#918E87" font-family="'MuseoSlab-700'" font-size="12.328">reading</tspan></text>
</svg>
