<?xml version="1.0" encoding="utf-8"?>
<!-- Generator: Adobe Illustrator 18.1.1, SVG Export Plug-In . SVG Version: 6.00 Build 0)  -->
<svg version="1.1" id="Layer_1" xmlns="http://www.w3.org/2000/svg" xmlns:xlink="http://www.w3.org/1999/xlink" x="0px" y="0px"
	 viewBox="0 0 1512 576" enable-background="new 0 0 1512 576" xml:space="preserve">
<g>
	<line fill="none" stroke="#A7BF4C" stroke-width="1.8" stroke-miterlimit="10" x1="719.8" y1="269.7" x2="719.6" y2="308.1"/>
	<g>
		<path fill="none" stroke="#A7BF4C" stroke-width="1.8" stroke-miterlimit="10" d="M719.8,269.7c0,0-15.1-10.5-31.7-9.1l-0.3,41.4
			c7.2-0.3,21.3-1,31.7,7.4c11.8-5.3,14.6-6.4,30.9-5.9l0.7-43.7C729.6,260.7,719.8,269.7,719.8,269.7z"/>
		<path fill="none" stroke="#A7BF4C" stroke-width="1.8" stroke-miterlimit="10" d="M720,270.3c0,0-8.4-13.8-25.5-14.8
			c0.2,20.5,0.2,34,0.1,39.3c5.1-0.3,18,2,23.9,12.9c0.3,0.5,1-0.2,1.2,0.1c0.1,0.2,0.7,0.1,0.8,0c5.6-6.3,13.6-10.7,24.1-11
			l0.2-41.6C728.5,255.8,720,270.3,720,270.3z"/>
		<polyline fill="none" stroke="#A7BF4C" stroke-width="1.8" stroke-miterlimit="10" points="751.9,263.8 756.3,264.3 756.7,310.3 
			682.2,309.7 682.7,264.7 687.8,264.4 		"/>
	</g>
</g>
<line fill="none" stroke="#918E87" stroke-width="0.5" stroke-miterlimit="10" x1="675.5" y1="323.1" x2="833.5" y2="323.1"/>
<text transform="matrix(1 0 0 1 767.7581 293.0775)"><tspan x="0" y="0" fill="#918E87" font-family="'MuseoSlab-700'" font-size="12.328">now</tspan><tspan x="0" y="16.4" fill="#918E87" font-family="'MuseoSlab-700'" font-size="12.328">reading</tspan></text>
</svg>
