<?xml version="1.0" encoding="utf-8"?>
<!-- Generator: Adobe Illustrator 18.1.1, SVG Export Plug-In . SVG Version: 6.00 Build 0)  -->
<svg version="1.1" id="Layer_1" xmlns="http://www.w3.org/2000/svg" xmlns:xlink="http://www.w3.org/1999/xlink" x="0px" y="0px"
	 viewBox="0 0 1512 576" enable-background="new 0 0 1512 576" xml:space="preserve">
<g>
	<rect x="702.4" y="258.6" fill="none" stroke="#F79420" stroke-width="1.8" stroke-miterlimit="10" width="41.1" height="51.3"/>
	<path fill="none" stroke="#F79420" stroke-width="1.8" stroke-miterlimit="10" d="M737.9,254.5c0,0,2.6,0.1,4.1,1.2
		s1.8,3.1,1.8,3.1"/>
	<path fill="none" stroke="#F79420" stroke-width="1.8" stroke-miterlimit="10" d="M737.7,305.6c0,0,2.4,0,3.7,0.9
		c1.6,1.2,2.3,3.3,2.3,3.3"/>
	<rect x="696.5" y="254.6" fill="none" stroke="#F79420" stroke-width="1.8" stroke-miterlimit="10" width="41.1" height="51.3"/>
	<polygon fill="none" stroke="#F79420" stroke-width="1.8" stroke-miterlimit="10" points="716.8,290 731.5,276.9 727.9,273.7 
		716.8,283.5 712.7,279.9 709.3,283.4 	"/>
</g>
<text transform="matrix(1 0 0 1 755.3684 293.2511)" fill="#918E87" font-family="'MuseoSlab-700'" font-size="12.328">FINISHED</text>
<text transform="matrix(1 0 0 1 755.3684 309.6511)" fill="#918E87" font-family="'MuseoSlab-700'" font-size="12.328">READING</text>
<line fill="none" stroke="#918E87" stroke-width="0.5" stroke-miterlimit="10" x1="677.2" y1="323.3" x2="835.2" y2="323.3"/>
</svg>
