<?xml version="1.0" encoding="utf-8"?>
<!-- Generator: Adobe Illustrator 18.1.1, SVG Export Plug-In . SVG Version: 6.00 Build 0)  -->
<svg version="1.1" id="Layer_1" xmlns="http://www.w3.org/2000/svg" xmlns:xlink="http://www.w3.org/1999/xlink" x="0px" y="0px"
	 viewBox="0 0 1512 576" enable-background="new 0 0 1512 576" xml:space="preserve">
<g>
	<rect x="791.5" y="296.2" fill="none" stroke="#5C9ABA" stroke-width="1.8" stroke-miterlimit="10" width="40.9" height="51.5"/>
	<path fill="none" stroke="#5C9ABA" stroke-width="1.8" stroke-miterlimit="10" d="M797.2,292.2c0,0-2.6,0.1-4.2,1.2
		c-1.4,1.1-1.8,3.1-1.8,3.1"/>
	<path fill="none" stroke="#5C9ABA" stroke-width="1.8" stroke-miterlimit="10" d="M797.4,343.4c0,0-2.4,0-3.7,0.9
		c-1.6,1.2-2.3,3.3-2.3,3.3"/>
	<rect x="797.4" y="292.2" fill="none" stroke="#5C9ABA" stroke-width="1.8" stroke-miterlimit="10" width="40.9" height="51.5"/>
	<g>
		<g>
			<path fill="none" stroke="#5C9ABA" stroke-width="1.8" stroke-miterlimit="10" d="M824.9,316c-0.2,0-0.3,0-0.5,0
				c-0.9-2.3-2.9-3.9-5.4-3.9c-0.3,0-0.6,0-0.8,0.1c-0.7-2.5-2.9-4.4-5.7-4.4c-3.3,0-5.9,2.7-5.9,5.9c0,0.2,0,0.4,0,0.6
				c-0.4-0.1-0.8-0.2-1.2-0.2c-2,0-3.7,1.6-3.7,3.7c0,1.8,1.3,3.3,3,3.6c-0.1,0.3-0.1,0.6-0.1,0.9c0,2.6,2.3,4.7,5,4.7
				c2.5,0,4.6-1.8,4.9-4.1c1,1.4,2.6,2.3,4.4,2.3c1.7,0,3.3-0.9,4.3-2.2c0.5,0.2,0.9,0.3,1.5,0.3c2,0,3.7-1.6,3.7-3.7
				C828.5,317.6,826.9,316,824.9,316z"/>
		</g>
	</g>
</g>
<text transform="matrix(1 0 0 1 850.3684 330.8192)"><tspan x="0" y="0" fill="#929088" font-family="'MuseoSlab-700'" font-size="12.328">want </tspan><tspan x="0" y="16.4" fill="#929088" font-family="'MuseoSlab-700'" font-size="12.328">to read</tspan></text>
<line fill="none" stroke="#929088" stroke-width="0.5" stroke-miterlimit="10" x1="772.2" y1="360.8" x2="930.2" y2="360.8"/>
</svg>
